<?xml version="1.0" encoding="UTF-8" standalone="no"?>
<!DOCTYPE svg PUBLIC "-//W3C//DTD SVG 1.1//EN" "http://www.w3.org/Graphics/SVG/1.1/DTD/svg11.dtd">
<svg width="100%" height="100%" viewBox="0 0 665 589" version="1.1" xmlns="http://www.w3.org/2000/svg" xmlns:xlink="http://www.w3.org/1999/xlink" xml:space="preserve" xmlns:serif="http://www.serif.com/" style="fill-rule:evenodd;clip-rule:evenodd;stroke-linejoin:round;stroke-miterlimit:2;">
    <g transform="matrix(1,0,0,1,-179.579,-217.762)">
        <g id="Goby" transform="matrix(1,0,0,1,-5.89733,-3.94966)">
            <g id="Main-Color" serif:id="Main Color">
                <path id="Dorsal-Fin-Color" serif:id="Dorsal Fin Color" d="M652.608,253.277C650.869,247.541 627.073,234.026 614.005,229.936C601.337,225.972 585.812,223.407 574.2,228.741C562.588,234.075 552.856,252.649 544.335,261.94C537.352,269.553 529.55,276.439 523.072,284.486C516.265,292.939 508.849,305.05 503.495,312.662C499.367,318.532 491.934,323.2 490.951,330.158C489.968,337.116 490.059,358.081 497.596,354.411C509.173,348.773 539.273,311.34 560.414,296.331C579.865,282.521 609.074,271.532 624.44,264.356C633.582,260.087 654.347,259.014 652.608,253.277Z" style="fill:rgb(249,207,52);"/>
                <path id="Middle-Dorsal-Fin-Color" serif:id="Middle Dorsal Fin Color" d="M481.177,387.473C474.27,387.205 439.726,406.396 429.941,413.898C424.642,417.96 423.2,426.361 422.467,432.481C421.738,438.569 425.067,444.564 425.544,450.616C426.02,456.656 426.154,463.021 425.327,468.791C424.519,474.439 421.309,479.991 420.586,485.238C419.902,490.205 418.905,495.813 420.992,500.273C423.078,504.733 430.235,516.831 433.107,512C441.505,497.873 463.367,436.263 471.379,415.509C474.944,406.273 488.083,387.742 481.177,387.473Z" style="fill:rgb(249,207,52);"/>
                <path id="Dorsal-Tail-Fin-Color" serif:id="Dorsal Tail Fin Color" d="M379.388,598.29C380.482,593.225 365.423,593.658 359.76,594.484C354.214,595.292 347.488,599.123 345.407,603.241C343.325,607.36 345.974,615.59 347.272,619.195C348.198,621.767 350.9,626.363 353.191,624.871C358.544,621.387 378.293,603.355 379.388,598.29Z" style="fill:rgb(249,207,52);"/>
                <path id="Tail-Color" serif:id="Tail Color" d="M326.971,638.077C320.717,628.624 286.196,614.116 268.399,606.767C253.034,600.421 232.226,596.11 220.193,593.978C212.32,592.583 201.087,592.737 196.204,593.978C193.251,594.729 190.769,598.38 190.9,601.425C191.148,607.192 194.063,619.984 197.691,628.581C201.485,637.572 207.375,647.385 213.665,655.371C219.92,663.314 229.603,669.781 235.428,676.496C240.51,682.354 248.98,687.915 248.616,695.661C248.044,707.849 235.725,734.328 231.995,749.619C228.976,761.999 226.366,778.337 226.238,787.411C226.155,793.206 225.693,802.332 231.222,804.068C237.007,805.885 251.9,802.782 260.948,798.311C275.343,791.197 303.648,773.174 317.596,761.384C328.617,752.068 340.129,734.519 344.635,727.574C346.061,725.376 346.842,721.126 344.635,719.714C339.575,716.478 321.217,713.393 314.276,708.156C308.197,703.568 304.383,695.733 302.991,688.288C301.599,680.844 302.336,670.999 305.924,663.487C309.921,655.118 333.039,647.25 326.971,638.077Z" style="fill:rgb(249,207,52);"/>
                <path id="Ventral-Fin-Color" serif:id="Ventral Fin Color" d="M373.966,722.58C367.98,724.557 368.118,736.245 368.132,740.567C368.143,743.87 370.759,748.248 374.052,748.514C378.499,748.872 389.246,746.208 394.815,742.718C400.383,739.228 410.94,730.93 407.465,727.574C403.99,724.217 380.521,720.414 373.966,722.58Z" style="fill:rgb(236,174,51);"/>
                <path id="Left-Fin-Color" serif:id="Left Fin Color" d="M820.108,522.031C824.909,518.67 824.276,523.104 829.123,534.953C834.024,546.931 843.119,561.796 845.409,567.966C847.917,574.726 846.976,583.552 845.409,589.596C843.954,595.209 840.878,601.088 836.005,604.231C829.867,608.189 816.734,613.488 808.578,613.346C800.677,613.208 792.114,607.214 787.07,603.377C782.9,600.204 774.881,594.282 778.312,590.321C794.766,571.331 810.384,528.839 820.108,522.031Z" style="fill:rgb(249,207,52);"/>
                <path id="Main-Body-Color" serif:id="Main Body Color" d="M700.808,253.307C679.169,253.849 639.133,258.325 614.711,266.211C592.65,273.335 570.409,289.229 554.274,300.625C540.724,310.195 528.342,321.699 517.897,334.587C506.537,348.604 495.18,367.14 486.113,384.729C475.664,404.997 464.455,434.324 455.205,456.194C446.814,476.032 440.079,496.603 430.609,515.95C419.575,538.491 402.689,572.869 389,591.442C378.286,605.977 361.501,616.66 348.472,627.386C336.334,637.379 317.546,643.716 310.824,655.798C304.101,667.879 298.534,688.718 308.134,699.876C317.929,711.26 347.723,721.51 369.589,724.098C403.567,728.119 467.664,729.344 512,724.003C554.251,718.913 600.817,704.849 635.605,692.051C665.703,680.979 696.587,664.642 720.729,647.217C743.557,630.741 764.119,609.381 780.457,587.503C796.645,565.827 809.851,541.166 818.761,515.95C827.67,490.733 830.132,452.914 833.914,436.206C835.522,429.102 840.605,421.259 841.452,415.697C842.109,411.382 838.379,407.156 838.996,402.836C839.62,398.471 846.725,394.161 845.193,389.507C843.167,383.349 831.831,374.519 826.837,365.889C818.311,351.158 807.753,318.276 794.038,301.12C781.029,284.849 760.084,270.927 744.545,262.958C731.261,256.144 715.733,252.933 700.808,253.307Z" style="fill:rgb(249,207,52);"/>
            </g>
            <g id="Highlights">
                <path id="Mid-Dorsal-Highlight" serif:id="Mid Dorsal Highlight" d="M475.851,393.172C478.707,393.41 478.149,401.669 475.285,401.751C459.08,402.215 428.36,422.835 427.457,430.699C426.912,435.448 425.199,421.98 427.596,418.834C431.526,413.673 442.996,404.011 451.039,399.734C458.592,395.718 471.81,392.836 475.851,393.172Z" style="fill:rgb(250,235,142);"/>
                <path id="Rear-Dorsal-Highlight" serif:id="Rear Dorsal Highlight" d="M375.614,600.494C378.112,600.185 369.838,597.214 366.647,597.138C360.118,596.983 350.735,603.024 351.589,602.861C355.741,602.066 365.272,603.343 371.078,603.116C373.161,603.034 374.696,600.608 375.614,600.494Z" style="fill:rgb(250,235,142);"/>
                <path id="Dorsal-Fin-Highlight" serif:id="Dorsal Fin Highlight" d="M568.924,235.121C569.659,235.121 566.918,224.541 613.187,233.904C629.214,237.147 649.527,250.303 649.527,250.303C646.559,252.582 643.448,253.636 640.241,253.845C640.241,253.845 625.739,244.694 614.986,240.518C596.716,233.423 568.051,235.121 568.924,235.121Z" style="fill:rgb(250,235,142);"/>
                <path id="Tail-Highlight" serif:id="Tail Highlight" d="M322.847,639.45C324.213,640.378 319.892,642.844 318.539,641.896C293.599,624.422 228.813,607.713 201.742,603.143C195.858,602.15 194.355,605.446 192.255,605.606C185.907,606.087 202.994,593.938 210.091,593.978C222.331,594.047 248.107,598.925 265.695,606.017C284.488,613.596 314.039,633.47 322.847,639.45Z" style="fill:rgb(250,235,142);"/>
                <path id="Back-Highlight" serif:id="Back Highlight" d="M825.674,366.386C834.586,379.49 816.707,335.5 808.034,322.236C798.511,307.675 783.65,289.925 768.538,279.017C753.458,268.131 735.75,259.577 717.361,256.787C695.637,253.49 662.053,254.363 638.193,259.236C615.536,263.863 593.261,272.929 574.2,286.022C552.533,300.905 525.596,326.572 508.189,348.534C491.79,369.226 480.047,396.026 469.76,417.796C460.414,437.575 454.596,458.842 446.467,479.151C438.171,499.88 427.709,526.169 419.985,542.166C414.405,553.721 406.691,565.597 400.118,575.138C394.222,583.696 387.732,591.899 380.547,599.409C372.22,608.114 359.814,619.856 350.153,627.365C341.616,634.002 312.38,643.354 322.586,644.467C352.341,647.71 411.105,593.249 434.476,534.649C489.507,396.662 505.894,341.672 586.463,293.507C639.224,261.966 773.323,226.629 813.843,364.09C815.247,368.856 822.746,362.08 825.674,366.386Z" style="fill:rgb(250,235,142);"/>
                <path id="Upper-Lip-Highlight" serif:id="Upper Lip Highlight" d="M709.559,398.681C704.772,401.33 752.14,374.05 770.141,369.115C785.388,364.936 806.153,367.094 817.567,369.075C825.516,370.455 834.762,377.343 838.628,381.003C841.111,383.354 843.184,393.45 840.763,391.036C805.033,355.416 731.398,386.593 709.559,398.681Z" style="fill:rgb(250,235,142);"/>
                <path id="Left-Fin-Highlight" serif:id="Left Fin Highlight" d="M818.833,523.412L815.641,529.648C815.641,529.648 815.842,530.181 815.996,530.418C834.183,558.497 839.986,582.236 843.248,585.872C846.762,589.79 836.723,553.152 836.723,553.152L818.833,523.412Z" style="fill:rgb(250,235,142);"/>
                <path id="Right-Fin-Highlight" serif:id="Right Fin Highlight" d="M557.576,476.872L535.125,501.374L489.504,535.524C489.504,535.524 468.042,575.872 472.838,567.636C482.916,550.333 503.51,528.645 536.9,507.139C559.832,492.369 557.576,476.872 557.576,476.872Z" style="fill:rgb(250,235,142);"/>
                <g id="Bottom-Lip-Highlight" serif:id="Bottom Lip Highlight" transform="matrix(1.05479,0,0,1.03401,-45.5078,-14.7222)">
                    <path d="M830.551,433.018C830.551,433.018 822.205,432.494 822.507,435.578C826.044,471.711 811.924,517.11 812.884,515.95C831.463,493.489 830.551,433.018 830.551,433.018Z" style="fill:rgb(250,235,142);"/>
                </g>
                <path id="Lower-Lip-Highlight" serif:id="Lower Lip Highlight" d="M821.235,434.452L841.747,414.676L826.193,403.016C833.783,414.076 830.628,424.46 821.235,434.452Z" style="fill:rgb(250,235,142);"/>
            </g>
            <g id="Shadows">
                <path id="Belly-Shadow" serif:id="Belly Shadow" d="M808.719,529.451C800.53,554.138 787.605,576.055 771.294,595.99C744.283,627.005 714.733,651.926 682.165,669.602L584.804,709.844L476.316,727.574L334.911,718.655L311.322,706.648C311.322,706.648 295.407,692.433 302.991,692.362C732.523,688.349 808.719,529.451 808.719,529.451Z" style="fill:rgb(236,174,51);"/>
                <path id="Tail-Shadow" serif:id="Tail Shadow" d="M298.708,690.885C298.848,689.319 298.013,690.232 301.776,713.212C307.413,747.633 228.318,789.581 228.318,789.581L235.364,804.596C235.364,804.596 282.501,787.335 300.942,773.56C319.242,759.89 346.013,721.945 346.013,721.945L298.708,690.885Z" style="fill:rgb(236,174,51);"/>
                <path id="Middle-Dorsal-Shadow" serif:id="Middle Dorsal Shadow" d="M469.104,416.739L434.074,512L419.392,491.781L426.82,451.092C426.82,451.092 454.797,435.716 451.445,422.952" style="fill:rgb(236,174,51);"/>
                <path id="Main-Dorsal-Shadow" serif:id="Main Dorsal Shadow" d="M614.558,261.519C565.874,282.79 527.614,318.307 497.242,356.382L492.322,324.045L505.307,309.757C505.307,309.757 515.946,311.917 517.897,311.533C549.838,305.241 519.259,288.735 522.821,288.62C571.282,287.053 555.556,267.42 559.056,267.331C613.311,265.943 595.703,249.987 595.703,249.987L614.558,261.519Z" style="fill:rgb(236,174,51);"/>
                <path id="Right-Fin-Shadow" serif:id="Right Fin Shadow" d="M586.463,521.939C586.463,521.939 572.981,535.205 567.026,542.527C559.482,551.802 551.696,567.118 541.199,577.592C533.496,585.278 524.97,594.078 514.707,593.407C480.658,591.179 473.267,583.343 473.267,583.343C473.267,583.343 472.216,619.355 521.413,620.788C539.104,621.303 558.061,608.515 567.937,587.578C576.385,569.669 586.463,521.939 586.463,521.939Z" style="fill:rgb(236,174,51);"/>
                <g id="Right-Eye-Shadow" serif:id="Right Eye Shadow" transform="matrix(1.02669,0,0,1.06202,-17.4951,-23.9354)">
                    <path d="M593.321,371.255L668.291,370.989C668.291,370.989 655.672,402.373 629.916,403.054C595.541,403.963 593.321,371.255 593.321,371.255Z" style="fill:rgb(236,174,51);"/>
                </g>
                <g id="Mouth-Shadow" serif:id="Mouth Shadow" transform="matrix(1.20665,0,0,1,-162.02,2)">
                    <path d="M757.667,433.049C768.211,420.911 807.195,417.754 813.397,421.592C815.615,422.965 813.977,427.471 812.771,429.169C809.479,433.808 800.618,437.138 784.534,438.248C771.211,439.168 756.587,434.293 757.667,433.049Z" style="fill:rgb(236,174,51);fill-rule:nonzero;"/>
                </g>
                <path id="Left-Fin-Shadow" serif:id="Left Fin Shadow" d="M803.303,556.96L805.609,563.767C805.609,563.767 802.463,580.262 805.085,583C806.117,584.078 808.719,572.166 808.719,572.166L821.235,608.43C812.659,611 804.031,611.148 795.327,607.854L780.552,593.023L803.303,556.96Z" style="fill:rgb(236,174,51);"/>
            </g>
            <g id="Eye-Color-and-Shadow" serif:id="Eye Color and Shadow">
                <g id="Eye-Color" serif:id="Eye Color">
                    <path id="Right-Eye-Color" serif:id="Right Eye Color" d="M622.025,301.828C616.41,303.846 607.725,308.86 602.611,314.506C597.496,320.151 592.25,327.749 591.338,335.699C590.304,344.707 592.378,359.535 596.41,368.557C600.3,377.263 608.099,385.906 615.53,389.836C622.961,393.765 633.724,393.788 640.997,392.136C648.114,390.519 654.729,385.149 659.167,379.921C663.604,374.692 666.061,367.429 667.621,360.764C669.181,354.1 669.919,346.743 668.527,339.934C667.059,332.752 664.086,323.814 658.812,317.671C653.441,311.416 642.432,305.041 636.301,302.4C631.927,300.516 626.507,300.218 622.025,301.828Z" style="fill:white;"/>
                    <path id="Left-Eye-Color" serif:id="Left Eye Color" d="M793.913,290.093C798.616,290.093 810.61,292.723 816.844,297.846C823.426,303.255 830.438,315.234 833.407,322.551C835.818,328.494 835.536,335.525 834.657,341.749C833.778,347.973 832.783,364.33 828.131,359.894C820.458,352.577 794.324,309.479 788.621,297.846C787.244,295.036 790.784,290.093 793.913,290.093Z" style="fill:white;"/>
                </g>
                <path id="EyeShadow" d="M591.663,340.068C598.647,382.005 658.297,385.998 664.685,348.083C660.555,367.872 658.352,387.122 632.308,394.849C608.092,393.418 595.659,369.75 591.663,340.068Z" style="fill:rgb(193,205,210);"/>
            </g>
            <g id="Goby-Outline" serif:id="Goby Outline">
                <path d="M303.268,779.325C284.975,792.388 266.065,803.417 244.261,808.593C242.32,809.054 240.369,809.493 238.405,809.842C228.488,811.605 221.818,806.546 220.682,796.517C219.023,781.856 221.628,767.675 225.497,753.65C229.094,740.613 234.549,728.254 239.548,715.731C240.349,713.724 240.997,711.653 241.666,709.596C245.037,699.232 242.999,690.568 234.625,683.037C223.737,673.244 212.807,663.373 204.775,650.901C198.724,641.506 193.104,631.86 189.437,621.231C188.245,617.774 187.132,614.268 186.318,610.708C183.228,597.201 188.648,590.237 202.456,589.736C219.299,589.125 235.633,592.151 251.632,597.017C277.458,604.871 301.616,616.37 324.014,631.434C327.268,633.623 329.878,634.101 333.032,631.846C334.246,630.978 335.618,630.333 336.905,629.563C343.481,625.63 343.479,625.627 341.307,618.475C336.644,603.123 350.216,588.164 367.129,590.084C370.427,590.459 373.773,590.864 376.794,592.413C378.962,593.525 380.313,592.893 381.872,591.057C400.819,568.74 414.897,543.517 426.542,516.815C427.606,514.373 427.674,512.732 424.995,511.052C416.145,505.502 413.749,497.002 415.231,487.205C416.026,481.954 417.314,476.767 418.588,471.603C420.639,463.295 419.869,454.878 418.33,446.795C414.602,427.219 421.645,413.11 438.083,402.707C449.961,395.189 462.209,388.53 475.621,384.218C478.5,383.292 480.523,381.836 481.987,379.126C484.835,373.852 487.91,368.695 491.063,363.595C492.439,361.369 492.458,359.483 491.37,357.089C482.51,337.609 485.052,323.332 500.071,308.035C503.542,304.501 505.988,300.455 507.508,295.775C509.301,290.258 512.137,285.418 517.071,282.117C530.151,273.365 539.566,261.488 546.764,247.664C554.212,233.362 565.061,223.661 581.811,222.028C590.873,221.145 599.769,222.174 608.556,224.321C624.744,228.276 639.934,234.755 653.437,244.433C659.431,248.729 665.202,249.152 672.002,248.62C714.212,245.315 752.259,255.387 784.208,284.395C785.74,285.785 787.194,286.878 789.495,286.503C806.938,283.661 819.885,291.458 829.121,305.144C841.317,323.217 842.887,342.627 832.606,362.335C830.753,365.887 831.338,368.251 834.449,370.409C837.473,372.506 840.197,374.954 842.617,377.734C849.403,385.526 850.084,393.85 844.277,402.416C842.595,404.898 842.349,406.898 843.319,409.76C845.462,416.083 845.058,422.293 840.304,427.517C838.718,429.261 838.239,431.148 838.074,433.389C836.022,461.339 832.138,488.97 823.088,515.635C822.136,518.44 823.569,520.057 824.808,521.96C832.353,533.549 840.085,545.024 845.276,557.956C847.835,564.33 849.788,570.899 850.225,577.725C851.504,597.703 839.652,612.646 819.616,616.182C803.506,619.024 790.032,614.274 779.838,601.146C779.241,600.376 778.572,599.661 777.716,598.663C772.967,601.93 770.038,606.671 766.442,610.681C742.713,637.142 714.927,658.328 683.778,675.286C638.251,700.073 589.581,715.504 538.624,724.004C498.902,730.63 458.85,732.438 418.644,731.03C414.454,730.883 411.502,731.957 408.613,735.079C400.636,743.699 390.875,749.663 379.42,752.495C369.352,754.983 361.848,747.565 364.024,737.378C364.712,734.16 365.917,731.052 367.005,727.503C361.645,726.08 356.361,725.81 351.118,725.299C349.371,725.128 348.318,726.061 347.618,727.552C337.657,748.778 321.677,764.862 303.268,779.325M790.581,303.911C779.494,290.776 766.678,279.807 751.11,272.242C725.759,259.924 699.125,255.544 671.045,258.048C640.204,260.798 611.344,269.502 584.202,284.294C543.012,306.742 513.829,340.603 491.549,381.134C475.026,411.19 463.622,443.362 452.133,475.516C440.859,507.067 428.992,538.386 410.777,566.778C391.177,597.327 367.625,623.902 334.921,641.152C329.925,643.787 324.915,646.601 320.488,650.068C308.466,659.482 304.168,672.344 306.936,686.971C309.892,702.593 319.786,711.394 335.3,713.842C361.959,718.048 388.815,720.63 415.756,721.559C442.55,722.484 469.355,722.449 496.152,720.03C528.759,717.086 560.845,711.719 592.299,702.618C647.735,686.577 698.765,662.329 741.456,622.556C768.063,597.768 790.167,569.667 804.852,536.128C816.829,508.774 824.175,480.187 827.526,450.556C828.076,445.69 828.169,440.772 828.47,435.932C825.211,435.197 822.797,437.336 820.099,436.528C819.942,434.362 821.797,433.745 822.861,432.623C825.953,429.361 829.359,426.369 832.224,422.923C837.653,416.391 836.661,410.795 829.58,406.188C824.903,403.145 819.729,401.26 814.282,400.317C797.993,397.496 782.167,399.422 766.615,404.909C753.377,409.58 741.177,416.55 728.184,421.735C716.225,426.508 704.008,428.996 691.071,426.437C687.856,425.801 684.796,422.35 681.797,424.109C678.387,426.108 681.789,430.323 680.691,433.425C674.725,431.228 672.236,425.306 673.809,417.278C675.118,410.595 681.213,404.858 686.88,405.155C687.064,407.351 685.293,408.733 684.597,410.529C682.665,415.514 683.381,417.243 688.524,418.393C694.062,419.632 699.61,420.158 705.352,419.075C713.441,417.55 721.156,414.993 728.616,411.662C743.044,405.222 756.852,397.375 772.358,393.449C791.938,388.492 811.208,387.833 829.969,396.603C836.019,399.432 838.78,397.775 838.829,391.038C838.853,387.67 837.517,384.896 835.372,382.439C832.013,378.593 827.802,375.965 823.134,374.01C804.708,366.291 786.089,367.61 767.331,372.659C747.655,377.955 730.169,388.069 712.295,397.35C710.835,398.108 709.535,399.709 706.335,398.576C739.633,369.33 775.604,352.358 821.015,364.319C814.074,342.091 805.025,322.048 790.581,303.911M288.962,748.462C297.754,739.607 306.363,730.582 314.304,720.946C315.59,719.386 317.745,717.796 315.05,715.555C311.893,712.929 308.797,710.231 305.626,707.521C304.882,708.078 304.31,708.42 303.841,708.871C285.256,726.728 263.988,740.344 239.827,749.393C237.386,750.307 235.524,751.72 234.733,754.415C231.775,764.495 229.732,774.733 229.331,785.247C229.253,787.297 228.728,789.629 231.339,791.555C252.283,780.095 271.217,765.683 288.962,748.462M203.489,612.171C201.286,611.938 199.077,610.43 196.876,612.092C197.371,619.832 207.239,640.926 212.677,646.196C213.862,647.345 215.177,647.677 216.707,647.833C222.831,648.458 228.963,649.036 235.067,649.83C255.782,652.523 276.102,656.733 295.091,665.9C296.247,666.458 297.386,667.38 299.057,666.423C299.67,664.939 300.452,663.288 301.036,661.57C301.665,659.721 303.025,658.099 302.872,655.549C272.308,636.175 239.851,620.75 203.489,612.171M327.227,743.723C331.429,737.534 336.661,731.909 338.721,724.311C333.824,722.866 329.563,721.982 325.624,720.331C322.297,718.936 320.396,719.738 318.57,722.539C314.751,728.398 310.506,733.962 305.685,739.03C285.088,760.683 261.078,777.837 235.112,792.409C233.484,793.322 231.231,793.703 230.771,796.026C232.987,800.315 236.23,801.548 240.732,800.017C243.716,799.003 246.861,798.469 249.862,797.496C280.823,787.457 305.997,769.035 327.227,743.723M207.512,609.808C241.503,618.191 274.409,629.102 302.772,650.623C304.291,651.777 305.863,652.879 307.468,650.754C310.785,646.363 314.92,642.813 319.221,639.935C318.997,638.178 318.047,637.726 317.212,637.214C284.515,617.159 250.079,601.861 211.28,598.49C206.918,598.111 202.626,598.571 198.369,599.419C196.018,599.887 194.546,601.307 194.364,603.852C194.157,606.765 196.064,607.474 198.38,607.915C201.159,608.443 203.915,609.087 207.512,609.808M289.653,691.323C278.816,692.991 267.977,694.641 257.145,696.342C255.055,696.67 252.545,696.696 252.408,699.701C251.886,711.113 246.782,721.133 242.929,731.549C240.912,737.001 238.245,742.274 237.146,748.774C259.478,737.819 278.894,723.935 297.577,708.855C302.115,705.193 303.691,702.342 300.546,696.705C296.963,690.283 297.542,689.959 289.653,691.323M297.588,673.193C297.075,670.997 295.128,670.719 293.443,670.094C274.879,663.21 256.042,657.228 236.537,653.648C230.515,652.543 224.448,650.966 217.956,651.594C218.836,654.917 220.676,656.888 222.528,658.737C226.997,663.198 231.537,667.596 236.198,671.855C242.381,677.505 248.376,683.296 250.837,691.618C251.838,695.006 253.802,694.332 256.218,693.737C266.696,691.16 276.903,687.501 287.617,685.857C297.638,684.319 297.635,684.302 297.588,673.193M607.804,260.278C596.059,250.456 582.472,243.951 568.405,238.276C566.126,237.357 564.649,238.088 563.154,239.678C556.94,246.281 553.228,254.389 548.934,262.226C549.747,262.744 550.126,263.14 550.575,263.249C561.227,265.837 571.9,268.349 581.795,273.293C583.27,274.03 584.692,273.66 586.08,272.921C592.684,269.405 599.513,266.389 606.475,263.649C607.485,263.251 610.007,263.085 607.804,260.278M604.17,250.219C607.755,252.638 611.509,254.848 614.866,257.551C616.998,259.268 618.867,259.451 621.257,258.576C628.463,255.94 635.833,253.895 643.398,252.545C644.575,252.335 646.111,252.455 646.799,250.533C644.099,248.942 641.45,247.245 638.683,245.772C620.791,236.242 602.176,229.49 581.422,231.301C577.358,231.655 573.327,232.289 569.286,235.526C581.497,239.707 592.682,244.392 604.17,250.219M820.504,607.874C837.199,602.716 839.941,591.196 839.941,591.196C839.941,591.196 826.666,569.676 820.758,560.651C817.723,556.014 814.101,551.761 809.96,546.3C807.674,550.859 805.082,553.65 806.792,558.065C811.826,571.065 820.082,608.005 820.504,607.874ZM528.882,288.898C536.116,289.859 543.492,289.978 550.454,292.566C551.708,293.032 553.054,293.44 554.3,292.604C561.541,287.741 568.762,282.848 576.453,277.652C568.22,272.489 559.956,269.134 551.441,266.235C547.842,265.009 545.627,265.665 543.56,268.956C540.082,274.496 535.302,278.919 530.156,282.942C528.283,284.407 526.55,286.051 524.002,288.267C526.219,288.592 527.165,288.73 528.882,288.898M534.542,309.028C538.502,305.381 542.912,302.188 546.713,297.62C538.791,293.778 530.893,291.936 522.915,290.455C520.773,290.058 518.997,291.477 518.102,293.388C514.561,300.954 512.029,309.039 505.598,315.424C516.46,317.105 526.837,320.55 534.542,309.028M428.524,425.089C427.676,427.192 426.583,429.24 426.807,432.102C439.373,425.9 450.888,418.445 463.874,414.07C465.027,413.682 465.912,412.893 466.389,411.777C468.709,406.347 470.993,400.902 473.774,394.316C462.775,398.38 453.552,403.184 444.788,408.878C438.462,412.988 432.759,417.809 428.524,425.089M840.272,590.488C840.272,590.488 850.36,564.054 818.689,527.403C816.611,532.141 815.059,535.802 813.399,539.415C812.555,541.252 812.517,542.78 813.958,544.423C822.369,554.015 840.272,590.488 840.272,590.488ZM459.264,429.822C459.598,427.136 461.786,424.831 461.092,421.259C449.305,424.685 438.094,428.484 427.762,434.567C426.871,435.091 426.346,435.969 426.323,437.052C426.224,441.522 427.039,445.812 428.481,450.36C435.602,447.57 442.066,444.486 448.859,442.565C453.618,441.219 456.329,438.817 457.549,434.255C457.89,432.98 458.482,431.772 459.264,429.822M803.05,561.324C799.696,566.699 796.108,570.472 795.834,575.398C795.365,583.789 799.064,605.858 799.064,605.858C799.064,605.858 807.181,610.803 820.123,607.99C819.655,604.929 808.422,573.171 803.05,561.324ZM826.337,332.682C826.218,336.814 826.731,340.955 825.442,345.052C824.609,347.698 825.597,350.003 827.894,352.1C836.861,325.191 817.4,291.584 795.71,294.927C796.862,304.433 807.834,301.86 812.389,307.835C808.973,311.607 807.97,315.37 811.214,319.274C814.784,323.569 818.265,320.669 821.69,318.601C824.972,322.607 825.998,327.054 826.337,332.682M505.256,342.774C510.301,336.142 515.345,329.511 520.635,322.558C515.407,320.273 510.657,319.78 505.921,319.135C502.872,318.72 500.905,319.896 499.3,322.401C495.837,327.807 494.702,333.71 495.18,340C495.413,343.064 494.676,346.942 498.312,348.237C502.195,349.62 502.633,345.013 505.256,342.774M434.337,451.879C427.637,454.382 426.252,458.835 429.01,469.001C443.27,467.593 453.112,457.976 450.754,447.383C445.239,447.652 440.283,450.147 434.337,451.879M388.25,739.776C392.298,737.109 397.015,735.25 399.732,730.692C394.997,728.615 390.209,729.519 385.638,728.679C376.802,727.056 375.823,727.83 373.194,736.345C372.544,738.451 372.136,740.009 374.173,742.083C376.282,744.23 378.142,744.155 380.322,743.377C382.816,742.488 385.179,741.227 388.25,739.776M426.241,476.793C425.799,481.144 423.28,485.289 424.756,489.849C436.955,489.786 444.062,482.118 443.039,469.715C438.472,470.651 433.948,471.521 429.453,472.527C427.696,472.92 426.58,474.125 426.241,476.793M366.156,598.439C363.964,598.212 361.86,598.666 359.781,599.284C352.361,601.493 347.946,608.134 349.199,615.177C349.698,617.978 351.049,619.835 353.901,617.865C360.961,612.987 367.141,607.11 373.502,600.188C370.72,599.482 370.223,599.113 367.551,598.551M784.356,592.097C785.076,593.869 786.89,597.042 789.612,599.524C793.474,603.045 798.437,605.719 798.437,605.719C798.437,605.719 794.543,586.4 791.913,578.975C788.645,583.501 785.769,586.698 784.356,592.097M424.975,494.275C424.074,499.593 425.646,501.92 431.344,503.327C432.871,500.028 435.302,497.043 435.335,492.736C431.811,491.823 428.714,493.158 424.975,494.275Z" style="fill-rule:nonzero;"/>
                <path d="M508.906,552.909C499.257,562.878 490.876,573.438 482.685,584.172C480.556,586.961 480.903,588.811 483.473,590.83C488.97,595.15 495.263,597.613 502.023,599.058C505.315,599.762 505.863,597.034 506.856,595.07C515.578,577.823 524.578,560.729 535.456,544.717C540.506,537.282 545.844,530.039 551.18,522.804C552.232,521.378 553.284,518.546 555.714,520.25C558.416,522.144 556.036,524.137 554.84,525.729C540.321,545.062 527.126,565.272 514.815,586.066C512.375,590.187 510.143,594.432 507.406,599.357C516.468,600.538 524.528,599.724 532.401,596.844C534.163,596.2 534.591,594.488 535.109,592.879C541.865,571.926 550.305,551.659 560.216,532.014C561.28,529.904 562.109,525.503 565.111,526.938C568.785,528.693 565.386,531.928 564.303,534.145C555.461,552.25 546.509,570.3 539.219,589.111C538.641,590.602 538.202,592.146 537.411,594.535C545.71,590.666 551.142,584.936 556.096,578.66C563.893,568.783 567.596,556.978 571.751,545.375C574.117,538.767 577.048,532.418 581.749,527.073C582.901,525.764 583.857,524.01 586.077,524.33C586.228,524.688 586.537,525.069 586.447,525.259C578.461,542.086 576.39,561.085 566.597,577.333C551.057,603.115 519.891,614.726 491.761,604.465C469.06,596.185 460.692,576.208 470.913,554.244C477.814,539.415 488.821,527.886 501.303,517.659C510.073,510.474 519.4,504.049 528.868,497.821C537.507,492.138 545.735,485.909 553.418,478.968C554.551,477.945 555.484,476.222 558.297,477.125C555.426,484.679 550.632,490.63 544.789,495.803C538.793,501.11 532.293,505.765 525.594,510.153C509.751,520.53 495.067,532.214 484.034,547.878C478.884,555.19 474.822,562.975 474.963,572.274C475.028,576.621 475.765,580.769 479.073,584.825C483.602,578.869 487.853,573.401 491.974,567.836C506.417,548.337 523.305,531.107 541.099,514.712C542.201,513.697 543.331,512.704 544.518,511.793C545.786,510.82 547.119,509.186 548.784,511.004C550.535,512.917 549.138,514.289 547.669,515.578C536.896,525.034 526.513,534.902 516.474,545.132C514.024,547.629 511.593,550.146 508.906,552.909Z" style="fill-rule:nonzero;"/>
                <path d="M632.797,398.302C614.947,398.76 602.46,390.55 593.64,376.149C582.145,357.378 583.155,332.212 595.903,315.374C614.171,291.247 646.351,292.161 663.377,317.291C677.281,337.813 675.759,366.575 659.412,385.052C652.561,392.795 643.63,397.139 632.797,398.302M641.731,387.351C645.596,385.677 649.033,383.393 651.932,380.307C665.282,366.097 667.88,340.595 657.656,323.968C643.482,300.916 613.838,300.961 600.566,324.054C591.499,339.831 593.04,361.946 604.212,376.359C613.671,388.563 626.494,392.488 641.731,387.351Z" style="fill-rule:nonzero;"/>
                <path d="M508.518,392.871C510.534,387.35 513.316,382.907 518.323,380.251C524.566,376.941 531.734,379.081 535.066,385.201C540.031,394.318 536.671,408.416 528.011,414.356C523.827,417.225 519.265,418.79 514.455,415.982C508.611,412.571 506.962,406.874 507.063,400.588C507.103,398.134 507.91,395.692 508.518,392.871Z" style="fill-rule:nonzero;"/>
                <path d="M466.064,486.456C464.332,477.814 465.595,470.161 471.083,463.574C474.844,459.06 479.554,456.492 485.608,458.297C491.865,460.162 494.429,465.132 495.147,471.072C495.981,477.975 493.992,484.283 489.719,489.751C483.569,497.624 469.846,498.535 466.064,486.456Z" style="fill-rule:nonzero;"/>
                <path d="M460.659,541.675C463.793,549.007 461.784,555.094 457.188,560.48C453.987,564.231 449.578,565.29 444.931,563.931C440.18,562.541 438.395,558.513 437.79,554.029C437.099,548.917 438.177,544.125 441.251,539.868C446.712,532.307 456.076,533.005 460.659,541.675Z" style="fill-rule:nonzero;"/>
                <path d="M797.354,422.17C804.227,422.233 810.692,421.315 817.255,422.887C811.774,430.435 776.006,435.539 758.141,431.07C770.263,424.866 783.461,423.075 797.354,422.17Z" style="fill-rule:nonzero;"/>
                <path d="M367.676,643.912C365.904,638.219 367.273,633.632 371.162,629.857C373.768,627.328 377.02,626.671 380.422,628.086C383.913,629.537 385.327,632.468 385.271,636.096C385.203,640.483 383.685,644.268 379.974,646.857C375.104,650.253 371.36,649.424 367.676,643.912Z" style="fill-rule:nonzero;"/>
                <path d="M432.502,594.615C424.986,596.225 421.603,593.758 421.66,587.164C421.697,582.925 423.431,579.728 427.49,578.229C430.599,577.081 433.524,577.835 435.52,580.504C438.064,583.904 437.978,587.665 435.895,591.26C435.179,592.496 433.87,593.387 432.502,594.615Z" style="fill-rule:nonzero;"/>
                <path d="M486.361,423.443C489.169,420.965 491.911,420.164 494.723,422.508C497.478,424.805 497.855,427.969 496.91,431.182C495.967,434.391 494.002,436.846 490.366,437.223C486.453,437.629 483.613,434.299 483.758,429.669C483.829,427.393 484.805,425.505 486.361,423.443Z" style="fill-rule:nonzero;"/>
                <path d="M345.737,649.942C348.84,649.258 351.112,649.912 352.145,652.738C353.002,655.08 352.647,657.319 350.741,659.143C348.72,661.077 346.492,661.87 344.079,659.973C341.87,658.237 341.273,655.922 342.434,653.311C343.049,651.928 343.984,650.758 345.737,649.942Z" style="fill-rule:nonzero;"/>
                <path d="M621.351,318.922C628.856,316.594 635.399,317.361 641.804,322.542C637.773,325.132 633.722,327.166 634.058,332.403C634.202,334.635 634.644,336.671 636.335,338.281C640.81,342.539 645.722,341.162 651.685,333.662C655.765,339.68 655.73,346.343 655.169,352.854C654.308,362.864 650.79,371.645 641.363,376.857C629.488,383.424 613.956,379.109 607.809,367.026C600.926,353.497 600.202,339.959 609.759,327.089C612.63,323.222 616.546,320.78 621.351,318.922Z" style="fill-rule:nonzero;"/>
            </g>
        </g>
    </g>
</svg>
